<svg width="200" height="200" viewBox="0 0 200 200" fill="none" xmlns="http://www.w3.org/2000/svg">
  <path d="M100.5 34C82.5 34 60 44 50 64C40 84 40 114 50 134C60 154 82.5 164 100.5 164C118.5 164 141 154 151 134C161 114 161 84 151 64C141 44 118.5 34 100.5 34Z" fill="#FFE135"/>
  <path d="M100.5 34C82.5 34 60 44 50 64C40 84 40 114 50 134C60 154 82.5 164 100.5 164C118.5 164 141 154 151 134C161 114 161 84 151 64C141 44 118.5 34 100.5 34Z" fill="#FFE135"/>
  <path d="M151 64C141 44 118.5 34 100.5 34V164C118.5 164 141 154 151 134C161 114 161 84 151 64Z" fill="#FFD000"/>
  <path d="M50 64C40 84 40 114 50 134C60 154 82.5 164 100.5 164V34C82.5 34 60 44 50 64Z" fill="#FFEA80"/>
  <path d="M40 54C30 64 25 94 30 114C35 134 55 154 75 159C95 164 125 159 145 149C165 139 170 109 165 89C160 69 140 49 120 44C100 39 70 44 50 54C40 59 45 49 40 54Z" fill="#FFE135" fill-opacity="0.5"/>
  <path d="M40 54C30 64 25 94 30 114C35 134 55 154 75 159C95 164 125 159 145 149C165 139 170 109 165 89C160 69 140 49 120 44C100 39 70 44 50 54C40 59 45 49 40 54Z" stroke="#8B4513" stroke-width="2"/>
  <path d="M165 89C160 69 140 49 120 44C100 39 70 44 50 54C40 59 45 49 40 54C30 64 25 94 30 114C35 134 55 154 75 159C95 164 125 159 145 149C165 139 170 109 165 89Z" stroke="#8B4513" stroke-width="2"/>
  <path d="M40 54C30 64 25 94 30 114C35 134 55 154 75 159C95 164 125 159 145 149C165 139 170 109 165 89C160 69 140 49 120 44C100 39 70 44 50 54C40 59 45 49 40 54Z" stroke="#8B4513" stroke-width="2"/>
  <path d="M30 24L40 54" stroke="#8B4513" stroke-width="4" stroke-linecap="round"/>
</svg>

